STARTFONT 2.1
FONT -XSYMB-XSymb0_sup-Medium-R-Normal--24-240-75-75-P-150-ADOBE-FONTSPECIFIC
SIZE 24 75 75
FONTBOUNDINGBOX 26 32 -3 -1
STARTPROPERTIES 25
FONT_NAME "XSymb0Medium"
FONT_ASCENT 25
FONT_DESCENT 0
QUAD_WIDTH 24
X_HEIGHT 24
CAP_HEIGHT 24
FONTNAME_REGISTRY ""
FAMILY_NAME "XSymb0_sup"
FOUNDRY "XSYMB"
WEIGHT_NAME "Medium"
SETWIDTH_NAME "Normal"
SLANT "R"
ADD_STYLE_NAME ""
PIXEL_SIZE 24
POINT_SIZE 240
RESOLUTION_X 75
RESOLUTION_Y 75
RESOLUTION 75
SPACING "P"
AVERAGE_WIDTH 150
CHARSET_REGISTRY "ADOBE"
CHARSET_ENCODING "FONTSPECIFIC"
CHARSET_COLLECTIONS "Symbol FontSpecific"
FULL_NAME "XSymb0 Medium"
COPYRIGHT """"""Copyright (c) 1984 Adobe Systems, Inc., Portions Copyright 1988 Digital Equipment Corp, 1997-1998 Free Software Foundation, Inc.""""""
ENDPROPERTIES
CHARS 189
STARTCHAR space
ENCODING 32
SWIDTH 500 0
DWIDTH 6 0
BBX 2 2 0 7
BITMAP
C0
C0
ENDCHAR
STARTCHAR exclam
ENCODING 33
SWIDTH 666 0
DWIDTH 8 0
BBX 2 18 2 7
BITMAP
C0
C0
C0
C0
C0
C0
C0
C0
C0
C0
C0
C0
C0
C0
00
00
C0
C0
ENDCHAR
STARTCHAR universal
ENCODING 34
SWIDTH 1426 0
DWIDTH 18 0
BBX 18 18 0 7
BITMAP
C000C0
C000C0
600180
300300
300300
380700
1FFE00
0FFC00
0C0C00
0E1C00
061800
033000
033000
033000
01E000
01E000
00C000
00C000
ENDCHAR
STARTCHAR numbersign
ENCODING 35
SWIDTH 1000 0
DWIDTH 14 0
BBX 12 18 0 7
BITMAP
0CC0
0CC0
0CC0
0CC0
0CC0
0CC0
FFF0
FFF0
3300
3300
FFC0
FFC0
3300
3300
3300
3300
3300
3300
ENDCHAR
STARTCHAR existential
ENCODING 36
SWIDTH 1098 0
DWIDTH 14 0
BBX 10 18 2 7
BITMAP
FFC0
FFC0
00C0
00C0
00C0
00C0
00C0
00C0
FFC0
FFC0
00C0
00C0
00C0
00C0
00C0
00C0
FFC0
FFC0
ENDCHAR
STARTCHAR percent
ENCODING 37
SWIDTH 1666 0
DWIDTH 20 0
BBX 19 18 0 7
BITMAP
3FC060
7F60E0
E73FC0
C31B80
C30700
E70E00
7E1C00
3C3800
007000
00E000
01CF00
039F80
0739C0
0E30C0
1C30C0
3839C0
701F80
E00F00
ENDCHAR
STARTCHAR ampersand
ENCODING 38
SWIDTH 1556 0
DWIDTH 20 0
BBX 18 18 2 7
BITMAP
0F0000
1F8000
39C000
30C000
30C000
39C000
1FBF00
0F3F00
3F1E00
7F8C00
E3CC00
C3DC00
C1F800
C0F000
C0F040
E1F9C0
7F9F80
3F0F00
ENDCHAR
STARTCHAR suchthat
ENCODING 39
SWIDTH 878 0
DWIDTH 14 0
BBX 10 10 2 9
BITMAP
FF00
FF80
00C0
00C0
FFC0
FFC0
00C0
00C0
FF80
FF00
ENDCHAR
STARTCHAR parenleft
ENCODING 40
SWIDTH 666 0
DWIDTH 10 0
BBX 6 24 2 1
BITMAP
04
0C
18
30
30
60
C0
C0
C0
C0
C0
C0
C0
C0
C0
C0
C0
C0
60
30
30
18
0C
04
ENDCHAR
STARTCHAR parenright
ENCODING 41
SWIDTH 666 0
DWIDTH 10 0
BBX 6 24 0 1
BITMAP
80
C0
60
30
30
18
0C
0C
0C
0C
0C
0C
0C
0C
0C
0C
0C
0C
18
30
30
60
C0
80
ENDCHAR
STARTCHAR asteriskmath
ENCODING 42
SWIDTH 1000 0
DWIDTH 12 0
BBX 10 10 0 11
BITMAP
0C00
0C00
CCC0
EDC0
3F00
3F00
EDC0
CCC0
0C00
0C00
ENDCHAR
STARTCHAR plus
ENCODING 43
SWIDTH 1098 0
DWIDTH 14 0
BBX 10 10 2 9
BITMAP
0C00
0C00
0C00
0C00
FFC0
FFC0
0C00
0C00
0C00
0C00
ENDCHAR
STARTCHAR comma
ENCODING 44
SWIDTH 444 0
DWIDTH 6 0
BBX 4 6 2 3
BITMAP
F0
F0
30
30
60
C0
ENDCHAR
STARTCHAR minus
ENCODING 45
SWIDTH 1112 0
DWIDTH 14 0
BBX 14 2 0 13
BITMAP
FFFC
FFFC
ENDCHAR
STARTCHAR period
ENCODING 46
SWIDTH 500 0
DWIDTH 6 0
BBX 2 2 2 7
BITMAP
C0
C0
ENDCHAR
STARTCHAR slash
ENCODING 47
SWIDTH 556 0
DWIDTH 6 0
BBX 6 18 0 7
BITMAP
0C
0C
0C
0C
0C
0C
18
18
30
30
30
60
E0
C0
C0
C0
C0
C0
ENDCHAR
STARTCHAR zero
ENCODING 48
SWIDTH 1000 0
DWIDTH 12 0
BBX 10 18 0 7
BITMAP
3F00
7F80
E1C0
C0C0
C0C0
C0C0
C0C0
C0C0
C0C0
C0C0
C0C0
C0C0
C0C0
C0C0
C0C0
E1C0
7F80
3F00
ENDCHAR
STARTCHAR one
ENCODING 49
SWIDTH 1000 0
DWIDTH 12 0
BBX 6 18 2 7
BITMAP
30
70
F0
F0
30
30
30
30
30
30
30
30
30
30
30
30
FC
FC
ENDCHAR
STARTCHAR two
ENCODING 50
SWIDTH 1000 0
DWIDTH 12 0
BBX 10 18 0 7
BITMAP
3F00
7F80
E1C0
C0C0
C0C0
C0C0
00C0
01C0
0380
0700
0E00
1C00
3800
7000
E0C0
C0C0
FFC0
FFC0
ENDCHAR
STARTCHAR three
ENCODING 51
SWIDTH 1000 0
DWIDTH 12 0
BBX 10 18 0 7
BITMAP
3F00
7F80
E1C0
C0C0
C0C0
00C0
00C0
01C0
0F80
0F80
01C0
00C0
00C0
00C0
C0C0
E1C0
7F80
3F00
ENDCHAR
STARTCHAR four
ENCODING 52
SWIDTH 1000 0
DWIDTH 12 0
BBX 12 18 0 7
BITMAP
03C0
07C0
06C0
0CC0
0CC0
18C0
18C0
30C0
30C0
60C0
60C0
C0C0
FFF0
FFF0
00C0
00C0
00C0
00C0
ENDCHAR
STARTCHAR five
ENCODING 53
SWIDTH 1000 0
DWIDTH 12 0
BBX 10 18 0 7
BITMAP
1FC0
3FC0
3000
6000
C000
C000
FF00
FF80
03C0
01C0
00C0
00C0
00C0
00C0
80C0
C1C0
FF80
7F00
ENDCHAR
STARTCHAR six
ENCODING 54
SWIDTH 1000 0
DWIDTH 12 0
BBX 10 18 0 7
BITMAP
0FC0
1FC0
3800
7000
E000
C000
CF00
DF80
F9C0
F0C0
E0C0
C0C0
C0C0
C0C0
C0C0
E1C0
7F80
3F00
ENDCHAR
STARTCHAR seven
ENCODING 55
SWIDTH 1000 0
DWIDTH 12 0
BBX 10 18 0 7
BITMAP
FFC0
FFC0
C0C0
C1C0
0180
0300
0300
0700
0600
0C00
0C00
1C00
3800
3000
3000
3000
3000
3000
ENDCHAR
STARTCHAR eight
ENCODING 56
SWIDTH 1000 0
DWIDTH 12 0
BBX 10 18 0 7
BITMAP
3F00
7F80
E1C0
C0C0
C0C0
E0C0
F0C0
F9C0
7F00
3F80
E7C0
C3C0
C1C0
C0C0
C0C0
E1C0
7F80
3F00
ENDCHAR
STARTCHAR nine
ENCODING 57
SWIDTH 1000 0
DWIDTH 12 0
BBX 10 18 0 7
BITMAP
3F00
7F80
E1C0
C0C0
C0C0
C0C0
C0C0
E1C0
7FC0
3FC0
0780
0380
0300
0700
0E00
1C00
3800
7000
ENDCHAR
STARTCHAR colon
ENCODING 58
SWIDTH 556 0
DWIDTH 6 0
BBX 2 12 4 7
BITMAP
C0
C0
00
00
00
00
00
00
00
00
C0
C0
ENDCHAR
STARTCHAR semicolon
ENCODING 59
SWIDTH 556 0
DWIDTH 6 0
BBX 4 16 0 3
BITMAP
30
30
00
00
00
00
00
00
00
00
30
30
30
60
C0
80
ENDCHAR
STARTCHAR less
ENCODING 60
SWIDTH 1098 0
DWIDTH 14 0
BBX 12 10 0 9
BITMAP
00F0
01F0
0F00
1E00
F000
F000
1E00
0F00
01F0
00F0
ENDCHAR
STARTCHAR equal
ENCODING 61
SWIDTH 1098 0
DWIDTH 14 0
BBX 10 6 2 11
BITMAP
FFC0
FFC0
0000
0000
FFC0
FFC0
ENDCHAR
STARTCHAR greater
ENCODING 62
SWIDTH 1098 0
DWIDTH 14 0
BBX 12 10 0 9
BITMAP
F000
F800
1F00
0F80
00F0
00F0
0F80
1F00
F800
F000
ENDCHAR
STARTCHAR question
ENCODING 63
SWIDTH 888 0
DWIDTH 12 0
BBX 10 18 0 7
BITMAP
3F00
7F80
E1C0
C0C0
C0C0
C0C0
00C0
01C0
0380
0700
0E00
0C00
0C00
0C00
0000
0000
0C00
0C00
ENDCHAR
STARTCHAR congruent
ENCODING 64
SWIDTH 1098 0
DWIDTH 16 0
BBX 12 12 2 9
BITMAP
3C30
7E70
E7E0
C3C0
0000
0000
FFF0
FFF0
0000
0000
FFF0
FFF0
ENDCHAR
STARTCHAR Alpha
ENCODING 65
SWIDTH 1444 0
DWIDTH 18 0
BBX 18 18 0 7
BITMAP
00C000
01E000
03F000
033000
033000
033000
061800
061800
0C0C00
0C0C00
0FFC00
0FFC00
1C0E00
180600
300300
300300
FC0FC0
FC0FC0
ENDCHAR
STARTCHAR Beta
ENCODING 66
SWIDTH 1334 0
DWIDTH 16 0
BBX 14 18 0 7
BITMAP
FFF0
FFF8
303C
301C
300C
300C
301C
3038
3FF0
3FF8
303C
301C
300C
300C
301C
303C
FFF8
FFF0
ENDCHAR
STARTCHAR Chi
ENCODING 67
SWIDTH 1444 0
DWIDTH 18 0
BBX 18 18 -1 7
BITMAP
FE1FC0
FE1FC0
380700
1C0E00
0E1C00
073800
03F000
01E000
01E000
01E000
01E000
03F000
073800
0E1C00
1C0E00
380700
FC0FC0
FC0FC0
ENDCHAR
STARTCHAR Delta
ENCODING 68
SWIDTH 1224 0
DWIDTH 16 0
BBX 14 18 0 7
BITMAP
0300
0300
0780
0780
0CC0
0CC0
1860
1860
1020
3030
3030
2010
6018
6018
C00C
C00C
FFFC
FFFC
ENDCHAR
STARTCHAR Epsilon
ENCODING 69
SWIDTH 1222 0
DWIDTH 16 0
BBX 14 18 0 7
BITMAP
FFFC
FFFC
300C
300C
3000
3000
3030
3030
3FF0
3FF0
3030
3030
3000
3000
300C
300C
FFFC
FFFC
ENDCHAR
STARTCHAR Phi
ENCODING 70
SWIDTH 1526 0
DWIDTH 20 0
BBX 18 18 0 7
BITMAP
03F000
03F000
00C000
00C000
3FFF00
7FFF80
F0C3C0
E0C1C0
C0C0C0
C0C0C0
E0C1C0
F0C3C0
7FFF80
3FFF00
00C000
00C000
03F000
03F000
ENDCHAR
STARTCHAR Gamma
ENCODING 71
SWIDTH 1206 0
DWIDTH 16 0
BBX 14 18 0 7
BITMAP
FFFC
FFFC
300C
300C
3000
3000
3000
3000
3000
3000
3000
3000
3000
3000
3000
3000
FC00
FC00
ENDCHAR
STARTCHAR Eta
ENCODING 72
SWIDTH 1444 0
DWIDTH 18 0
BBX 16 18 0 7
BITMAP
FC3F
FC3F
300C
300C
300C
300C
300C
300C
3FFC
3FFC
300C
300C
300C
300C
300C
300C
FC3F
FC3F
ENDCHAR
STARTCHAR Iota
ENCODING 73
SWIDTH 666 0
DWIDTH 8 0
BBX 6 18 0 7
BITMAP
FC
FC
30
30
30
30
30
30
30
30
30
30
30
30
30
30
FC
FC
ENDCHAR
STARTCHAR theta1
ENCODING 74
SWIDTH 1262 0
DWIDTH 16 0
BBX 16 18 0 7
BITMAP
0030
0078
00CC
00CC
00CC
00EC
387C
7C3C
CC1E
8C0F
0C0C
0C0C
0C0C
0C0C
0C1C
0E3C
07F8
03F0
ENDCHAR
STARTCHAR Kappa
ENCODING 75
SWIDTH 1444 0
DWIDTH 18 0
BBX 17 18 0 7
BITMAP
FC7E00
FC7E00
303800
307000
30E000
31C000
338000
370000
3F0000
3F8000
31C000
30E000
307000
303800
301C00
300E00
FC1F80
FC1F80
ENDCHAR
STARTCHAR Lambda
ENCODING 76
SWIDTH 1372 0
DWIDTH 18 0
BBX 18 18 0 7
BITMAP
00C000
00C000
00C000
01E000
012000
033000
033000
061800
061800
0C0C00
0C0C00
180600
180600
300300
300300
600180
FC0FC0
FC0FC0
ENDCHAR
STARTCHAR Mu
ENCODING 77
SWIDTH 1778 0
DWIDTH 22 0
BBX 22 18 0 7
BITMAP
FC00FC
FC00FC
3C00F0
3C00F0
3601B0
3601B0
330330
330330
318630
318630
318630
30CC30
30CC30
30CC30
307830
303030
FC30FC
FC30FC
ENDCHAR
STARTCHAR Nu
ENCODING 78
SWIDTH 1444 0
DWIDTH 18 0
BBX 16 18 0 7
BITMAP
FC3F
FC3F
3C0C
3E0C
360C
330C
330C
318C
318C
30CC
30CC
306C
306C
303C
303C
301C
FC1C
FC0C
ENDCHAR
STARTCHAR Omicron
ENCODING 79
SWIDTH 1444 0
DWIDTH 18 0
BBX 16 18 1 7
BITMAP
07E0
0FF0
1C38
381C
700E
6006
C003
C003
C003
C003
C003
C003
C003
6006
700E
381C
1FF8
0FF0
ENDCHAR
STARTCHAR Pi
ENCODING 80
SWIDTH 1536 0
DWIDTH 18 0
BBX 16 18 0 7
BITMAP
FFFF
FFFF
300C
300C
300C
300C
300C
300C
300C
300C
300C
300C
300C
300C
300C
300C
FC3F
FC3F
ENDCHAR
STARTCHAR Theta
ENCODING 81
SWIDTH 1482 0
DWIDTH 18 0
BBX 16 18 0 7
BITMAP
07E0
0FF0
1C38
381C
700E
E007
CC33
CC33
CFF3
CFF3
CC33
CC33
6006
700E
381C
1C38
0FF0
07E0
ENDCHAR
STARTCHAR Rho
ENCODING 82
SWIDTH 1112 0
DWIDTH 14 0
BBX 12 18 0 7
BITMAP
FFC0
FFE0
30F0
3070
3030
3030
3070
30F0
3FE0
3FC0
3000
3000
3000
3000
3000
3000
FC00
FC00
ENDCHAR
STARTCHAR Sigma
ENCODING 83
SWIDTH 1184 0
DWIDTH 16 0
BBX 12 18 2 7
BITMAP
FFF0
FFF0
C030
C030
E000
7000
3800
1C00
0E00
0700
0E00
1C00
3800
7000
E030
C030
FFF0
FFF0
ENDCHAR
STARTCHAR Tau
ENCODING 84
SWIDTH 1222 0
DWIDTH 16 0
BBX 14 18 0 7
BITMAP
FFFC
FFFC
C30C
C30C
C30C
C30C
0300
0300
0300
0300
0300
0300
0300
0300
0300
0300
0FC0
0FC0
ENDCHAR
STARTCHAR Upsilon
ENCODING 85
SWIDTH 1380 0
DWIDTH 18 0
BBX 18 18 0 7
BITMAP
FC0FC0
FC0FC0
700380
380700
1C0E00
0E1C00
073800
03F000
01E000
00C000
00C000
00C000
00C000
00C000
00C000
00C000
03F000
03F000
ENDCHAR
STARTCHAR sigma1
ENCODING 86
SWIDTH 878 0
DWIDTH 14 0
BBX 10 18 2 1
BITMAP
3FC0
7FC0
E000
C000
C000
C000
C000
C000
E000
F000
7F00
3F80
01C0
00C0
20C0
31C0
1F80
0F00
ENDCHAR
STARTCHAR Omega
ENCODING 87
SWIDTH 1536 0
DWIDTH 20 0
BBX 20 18 0 7
BITMAP
03FC00
03FC00
070E00
0E0700
0C0300
1C0180
3801C0
3000C0
3000C0
3000C0
3000C0
3801C0
1C0380
0E0700
C70E30
C30C30
FF0FF0
FF0FF0
ENDCHAR
STARTCHAR Xi
ENCODING 88
SWIDTH 1290 0
DWIDTH 16 0
BBX 16 18 0 7
BITMAP
3FFC
3FFC
300C
300C
0000
0000
0C30
0C30
0FF0
0FF0
0C30
0C30
0000
0000
C003
C003
FFFF
FFFF
ENDCHAR
STARTCHAR Psi
ENCODING 89
SWIDTH 1590 0
DWIDTH 20 0
BBX 18 18 0 7
BITMAP
F3F3C0
F3F3C0
30C300
30C300
30C300
30C300
38C700
1CCE00
0FFC00
07F800
00C000
00C000
00C000
00C000
00C000
00C000
03F000
03F000
ENDCHAR
STARTCHAR Zeta
ENCODING 90
SWIDTH 1222 0
DWIDTH 16 0
BBX 14 18 0 7
BITMAP
7FFC
7FFC
600C
601C
0038
0070
00E0
01C0
0380
0700
0E00
1C00
3800
7000
E00C
C00C
FFFC
FFFC
ENDCHAR
STARTCHAR bracketleft
ENCODING 91
SWIDTH 666 0
DWIDTH 10 0
BBX 6 24 2 1
BITMAP
FC
FC
C0
C0
C0
C0
C0
C0
C0
C0
C0
C0
C0
C0
C0
C0
C0
C0
C0
C0
C0
C0
FC
FC
ENDCHAR
STARTCHAR therefore
ENCODING 92
SWIDTH 1726 0
DWIDTH 18 0
BBX 14 12 2 7
BITMAP
0300
0300
0300
0300
0000
0000
0000
0000
C00C
C00C
C00C
C00C
ENDCHAR
STARTCHAR bracketright
ENCODING 93
SWIDTH 666 0
DWIDTH 10 0
BBX 6 24 0 1
BITMAP
FC
FC
0C
0C
0C
0C
0C
0C
0C
0C
0C
0C
0C
0C
0C
0C
0C
0C
0C
0C
0C
0C
FC
FC
ENDCHAR
STARTCHAR perpendicular
ENCODING 94
SWIDTH 1316 0
DWIDTH 16 0
BBX 14 18 0 7
BITMAP
0300
0300
0300
0300
0300
0300
0300
0300
0300
0300
0300
0300
0300
0300
0300
0300
FFFC
FFFC
ENDCHAR
STARTCHAR underscore
ENCODING 95
SWIDTH 1000 0
DWIDTH 12 0
BBX 12 2 0 5
BITMAP
FFF0
FFF0
ENDCHAR
STARTCHAR radicalex
ENCODING 96
SWIDTH 1000 0
DWIDTH 12 0
BBX 14 2 0 23
BITMAP
FFFC
FFFC
ENDCHAR
STARTCHAR alpha
ENCODING 97
SWIDTH 1262 0
DWIDTH 16 0
BBX 14 12 2 7
BITMAP
3F30
7F30
F330
E1B0
C1E0
C0C0
C0C0
C1E0
E1B0
F330
7E3C
3C1C
ENDCHAR
STARTCHAR beta
ENCODING 98
SWIDTH 1098 0
DWIDTH 14 0
BBX 10 26 2 1
BITMAP
3F00
7F80
E1C0
C0C0
C0C0
C0C0
C0C0
C0C0
CF80
CF00
C180
C0C0
C0C0
C0C0
C0C0
E0C0
F0C0
F9C0
DF80
CF00
C000
C000
C000
C000
C000
C000
ENDCHAR
STARTCHAR chi
ENCODING 99
SWIDTH 1098 0
DWIDTH 14 0
BBX 14 18 0 1
BITMAP
F03C
F83C
CC70
CCE0
0CC0
0CC0
07C0
0380
0700
0F80
0CC0
0CC0
1CC0
18C0
38C4
30CC
F07C
F038
ENDCHAR
STARTCHAR delta
ENCODING 100
SWIDTH 988 0
DWIDTH 14 0
BBX 10 20 2 7
BITMAP
3F00
7F80
E3C0
C1C0
C000
E000
7000
3000
3F00
7F80
E1C0
C0C0
C0C0
C0C0
C0C0
C0C0
C0C0
E1C0
7F80
3F00
ENDCHAR
STARTCHAR epsilon
ENCODING 101
SWIDTH 878 0
DWIDTH 10 0
BBX 8 12 2 7
BITMAP
3F
7F
C0
C0
FC
FC
C0
C0
C0
C0
7F
3F
ENDCHAR
STARTCHAR phi
ENCODING 102
SWIDTH 1042 0
DWIDTH 16 0
BBX 14 22 0 1
BITMAP
0300
0300
0300
0300
0FC0
1FE0
3B70
7338
E31C
C30C
C30C
E31C
7338
3B70
1FE0
0FC0
0300
0300
0300
0300
0300
0300
ENDCHAR
STARTCHAR gamma
ENCODING 103
SWIDTH 822 0
DWIDTH 14 0
BBX 12 18 0 1
BITMAP
F030
F830
DC30
CC30
0C30
0C30
0C30
0C30
0C60
0CC0
07C0
0380
0300
0300
0700
0E00
0C00
0C00
ENDCHAR
STARTCHAR eta
ENCODING 104
SWIDTH 1206 0
DWIDTH 16 0
BBX 14 18 0 1
BITMAP
3CF0
7DF8
EF9C
CF0C
0E0C
0C0C
0C0C
0C0C
0C0C
0C0C
0C0C
0C0C
000C
000C
000C
000C
000C
000C
ENDCHAR
STARTCHAR iota
ENCODING 105
SWIDTH 658 0
DWIDTH 6 0
BBX 6 12 0 7
BITMAP
F0
F0
30
30
30
30
30
30
30
30
3C
3C
ENDCHAR
STARTCHAR phi1
ENCODING 106
SWIDTH 1206 0
DWIDTH 16 0
BBX 14 18 0 1
BITMAP
03C0
03E0
3370
7338
E31C
C30C
C30C
E31C
7338
3B70
1FE0
0FC0
0380
0300
0300
0300
0300
0300
ENDCHAR
STARTCHAR kappa
ENCODING 107
SWIDTH 1098 0
DWIDTH 14 0
BBX 12 12 0 7
BITMAP
30F0
71F0
F330
B630
3C00
3C00
3E00
3700
3380
31C0
30F0
3070
ENDCHAR
STARTCHAR lambda
ENCODING 108
SWIDTH 1098 0
DWIDTH 14 0
BBX 14 18 0 7
BITMAP
3C00
3E00
3300
3300
0300
0300
0700
0F80
0D80
1DC0
18C0
30C0
30C0
70C0
E0CC
E0EC
C07C
C03C
ENDCHAR
STARTCHAR mu
ENCODING 109
SWIDTH 1152 0
DWIDTH 16 0
BBX 14 18 2 1
BITMAP
C0C0
C0C0
C0C0
C0C0
C0C0
C0C0
C0C0
C1C0
C3CC
C7DC
FEF8
FCF0
C000
C000
C000
C000
F000
7000
ENDCHAR
STARTCHAR nu
ENCODING 110
SWIDTH 1042 0
DWIDTH 14 0
BBX 12 12 0 7
BITMAP
F0E0
F0F0
3030
3030
3030
3830
1860
18C0
0CC0
0D80
0F80
0700
ENDCHAR
STARTCHAR omicron
ENCODING 111
SWIDTH 1098 0
DWIDTH 14 0
BBX 10 12 2 7
BITMAP
3F00
7F80
E1C0
C0C0
C0C0
C0C0
C0C0
C0C0
C0C0
E1C0
7F80
3F00
ENDCHAR
STARTCHAR pi
ENCODING 112
SWIDTH 1098 0
DWIDTH 14 0
BBX 14 12 0 7
BITMAP
3FFC
7FFC
CC30
8C30
0C30
0C30
0C30
0C30
0C34
0C3C
3C38
3C30
ENDCHAR
STARTCHAR theta
ENCODING 113
SWIDTH 1042 0
DWIDTH 14 0
BBX 10 18 2 7
BITMAP
3F00
7F80
E1C0
C0C0
C0C0
C0C0
C0C0
C0C0
FFC0
FFC0
C0C0
C0C0
C0C0
C0C0
C0C0
E1C0
7F80
3F00
ENDCHAR
STARTCHAR rho
ENCODING 114
SWIDTH 1098 0
DWIDTH 14 0
BBX 10 18 2 1
BITMAP
3F00
7F80
E1C0
C0C0
C0C0
C0C0
C0C0
C0C0
E0C0
F1C0
DF80
CF00
C000
C000
C000
C000
C000
C000
ENDCHAR
STARTCHAR sigma
ENCODING 115
SWIDTH 1206 0
DWIDTH 14 0
BBX 12 12 2 7
BITMAP
3FF0
7FF0
E700
C380
C1C0
C0C0
C0C0
C0C0
C0C0
E1C0
7F80
3F00
ENDCHAR
STARTCHAR tau
ENCODING 116
SWIDTH 878 0
DWIDTH 12 0
BBX 10 12 0 7
BITMAP
3FC0
7FC0
CC00
8C00
0C00
0C00
0C00
0C00
0C40
0CC0
0F80
0F00
ENDCHAR
STARTCHAR upsilon
ENCODING 117
SWIDTH 1152 0
DWIDTH 16 0
BBX 14 12 0 7
BITMAP
3830
7C18
CC0C
8C0C
0C0C
0C0C
0C0C
0C0C
0C1C
0E3C
07F8
03F0
ENDCHAR
STARTCHAR omega1
ENCODING 118
SWIDTH 1426 0
DWIDTH 18 0
BBX 16 14 0 7
BITMAP
3FFF
7FFF
CC0C
9806
38C7
30C3
30C3
30C3
30C3
30C3
30C3
39E7
1F3E
0E1C
ENDCHAR
STARTCHAR omega
ENCODING 119
SWIDTH 1372 0
DWIDTH 18 0
BBX 14 12 2 7
BITMAP
1020
7038
E31C
C30C
C30C
C30C
C30C
C30C
C30C
C78C
7CF8
3870
ENDCHAR
STARTCHAR xi
ENCODING 120
SWIDTH 986 0
DWIDTH 12 0
BBX 10 24 2 1
BITMAP
3F00
3F00
F000
E000
C000
C000
FF00
7F00
3000
3000
6000
C000
C000
C000
E000
F000
7F00
3F80
00C0
00C0
20C0
31C0
3F80
1F00
ENDCHAR
STARTCHAR psi
ENCODING 121
SWIDTH 1372 0
DWIDTH 18 0
BBX 18 18 0 1
BITMAP
80C040
E0C1C0
70C380
30C300
30C300
30C300
30C300
30C300
38C700
3CCF00
1FFE00
0FFC00
00C000
00C000
00C000
00C000
00C000
00C000
ENDCHAR
STARTCHAR zeta
ENCODING 122
SWIDTH 988 0
DWIDTH 12 0
BBX 10 24 2 1
BITMAP
41C0
C3C0
7F80
3F00
1800
3000
6000
C000
C000
C000
C000
C000
C000
C000
E000
F000
7F00
3F80
01C0
00C0
20C0
31C0
3F80
1F00
ENDCHAR
STARTCHAR braceleft
ENCODING 123
SWIDTH 960 0
DWIDTH 12 0
BBX 10 24 0 1
BITMAP
03C0
07C0
0E00
0C00
0C00
0C00
0C00
1C00
3800
6000
C000
C000
6000
3800
1C00
0C00
0C00
0C00
0C00
0C00
0C00
0E00
07C0
03C0
ENDCHAR
STARTCHAR bar
ENCODING 124
SWIDTH 960 0
DWIDTH 6 0
BBX 2 14 2 7
BITMAP
C0
C0
C0
C0
C0
C0
C0
C0
C0
C0
C0
C0
C0
C0
ENDCHAR
STARTCHAR braceright
ENCODING 125
SWIDTH 960 0
DWIDTH 12 0
BBX 10 24 0 1
BITMAP
F000
F800
1C00
0C00
0C00
0C00
0C00
0E00
0700
0180
00C0
00C0
0180
0700
0E00
0C00
0C00
0C00
0C00
0C00
0C00
1C00
F800
F000
ENDCHAR
STARTCHAR similar
ENCODING 126
SWIDTH 1098 0
DWIDTH 16 0
BBX 12 6 2 11
BITMAP
3830
7C30
CE30
C730
C3E0
C1C0
ENDCHAR
STARTCHAR Upsilon1
ENCODING 161
SWIDTH 1240 0
DWIDTH 16 0
BBX 16 18 0 7
BITMAP
C03C
E07E
30C3
18C3
0CCF
07CE
0380
0300
0300
0300
0300
0300
0300
0300
0300
0300
0FC0
0FC0
ENDCHAR
STARTCHAR minute
ENCODING 162
SWIDTH 494 0
DWIDTH 10 0
BBX 6 10 2 15
BITMAP
1C
1C
3C
38
70
F0
E0
E0
C0
C0
ENDCHAR
STARTCHAR lessequal
ENCODING 163
SWIDTH 1098 0
DWIDTH 16 0
BBX 12 14 2 7
BITMAP
00F0
03C0
0F00
3C00
F000
F000
3C00
0F00
03C0
00F0
0000
0000
FFF0
FFF0
ENDCHAR
STARTCHAR fraction
ENCODING 164
SWIDTH 334 0
DWIDTH 8 0
BBX 10 18 -3 7
BITMAP
00C0
00C0
0180
0180
0300
0300
0600
0600
0C00
0C00
1800
1800
3000
3000
6000
6000
C000
C000
ENDCHAR
STARTCHAR infinity
ENCODING 165
SWIDTH 1426 0
DWIDTH 18 0
BBX 18 8 0 9
BITMAP
1E1F00
3F3F80
63E1C0
C1C0C0
C0E0C0
E1F1C0
7F3F80
3E1F00
ENDCHAR
STARTCHAR florin
ENCODING 166
SWIDTH 1000 0
DWIDTH 12 0
BBX 11 24 1 1
BITMAP
01C0
03E0
0660
0620
0600
0600
7FE0
7FE0
0600
0600
0600
0600
0600
0600
0600
0600
0600
0600
0600
0600
8600
CE00
7C00
3800
ENDCHAR
STARTCHAR club
ENCODING 167
SWIDTH 1506 0
DWIDTH 18 0
BBX 14 14 2 5
BITMAP
0780
0FC0
0FC0
0FC0
77B8
FB7C
FFFC
FFFC
FB7C
7338
0300
0300
0300
0300
ENDCHAR
STARTCHAR diamond
ENCODING 168
SWIDTH 1506 0
DWIDTH 14 0
BBX 12 12 1 7
BITMAP
0600
0F00
1F80
3FC0
7FE0
FFF0
FFF0
7FE0
3FC0
1F80
0F00
0600
ENDCHAR
STARTCHAR heart
ENCODING 169
SWIDTH 1506 0
DWIDTH 18 0
BBX 14 13 2 7
BITMAP
1860
3CF0
7FF8
FFFC
FFFC
FFFC
FFFC
7FF8
3FF0
1FE0
0FC0
0780
0300
ENDCHAR
STARTCHAR spade
ENCODING 170
SWIDTH 1506 0
DWIDTH 18 0
BBX 14 14 2 5
BITMAP
0300
0780
0FC0
1FE0
3FF0
7FF8
FFFC
FFFC
FB7C
7338
0300
0300
0300
0300
ENDCHAR
STARTCHAR arrowboth
ENCODING 171
SWIDTH 2084 0
DWIDTH 26 0
BBX 22 10 2 9
BITMAP
0E01C0
1C00E0
380070
700038
FFFFFC
FFFFFC
700038
380070
1C00E0
0E01C0
ENDCHAR
STARTCHAR arrowleft
ENCODING 172
SWIDTH 1974 0
DWIDTH 26 0
BBX 22 10 2 9
BITMAP
0E0000
1C0000
380000
700000
FFFFFC
FFFFFC
700000
380000
1C0000
0E0000
ENDCHAR
STARTCHAR arrowup
ENCODING 173
SWIDTH 1206 0
DWIDTH 14 0
BBX 12 22 1 3
BITMAP
0600
0F00
1F80
3FC0
76E0
E670
0600
0600
0600
0600
0600
0600
0600
0600
0600
0600
0600
0600
0600
0600
0600
0600
ENDCHAR
STARTCHAR arrowright
ENCODING 174
SWIDTH 1974 0
DWIDTH 26 0
BBX 22 10 2 9
BITMAP
0001C0
0000E0
000070
000038
FFFFFC
FFFFFC
000038
000070
0000E0
0001C0
ENDCHAR
STARTCHAR arrowdown
ENCODING 175
SWIDTH 1206 0
DWIDTH 14 0
BBX 10 22 2 3
BITMAP
0C00
0C00
0C00
0C00
0C00
0C00
0C00
0C00
0C00
0C00
0C00
0C00
0C00
0C00
0C00
8C40
CCC0
EDC0
7F80
3F00
1E00
0C00
ENDCHAR
STARTCHAR degree
ENCODING 176
SWIDTH 800 0
DWIDTH 10 0
BBX 8 8 0 17
BITMAP
3C
7E
E7
C3
C3
E7
7E
3C
ENDCHAR
STARTCHAR plusminus
ENCODING 177
SWIDTH 1098 0
DWIDTH 14 0
BBX 10 14 2 7
BITMAP
0C00
0C00
0C00
0C00
FFC0
FFC0
0C00
0C00
0C00
0C00
0000
0000
FFC0
FFC0
ENDCHAR
STARTCHAR second
ENCODING 178
SWIDTH 822 0
DWIDTH 10 0
BBX 10 7 0 18
BITMAP
0440
0CC0
1980
3300
6600
CC00
8800
ENDCHAR
STARTCHAR greaterequal
ENCODING 179
SWIDTH 1098 0
DWIDTH 16 0
BBX 12 14 2 7
BITMAP
F000
3C00
0F00
03C0
00F0
00F0
03C0
0F00
3C00
F000
0000
0000
FFF0
FFF0
ENDCHAR
STARTCHAR multiply
ENCODING 180
SWIDTH 1098 0
DWIDTH 14 0
BBX 12 12 1 8
BITMAP
C030
E070
70E0
39C0
1F80
0F00
0F00
1F80
39C0
70E0
E070
C030
ENDCHAR
STARTCHAR proportional
ENCODING 181
SWIDTH 1426 0
DWIDTH 18 0
BBX 14 8 2 11
BITMAP
3C7C
7EFC
E780
C300
C300
E780
7EFC
3C7C
ENDCHAR
STARTCHAR partialdiff
ENCODING 182
SWIDTH 988 0
DWIDTH 12 0
BBX 10 18 0 7
BITMAP
3C00
7E00
C300
8180
00C0
00C0
3CC0
7EC0
E3C0
C1C0
C0C0
C0C0
C0C0
C0C0
C0C0
E1C0
7F80
3F00
ENDCHAR
STARTCHAR bullet
ENCODING 183
SWIDTH 920 0
DWIDTH 12 0
BBX 7 7 2 12
BITMAP
38
38
FE
FE
FE
38
38
ENDCHAR
STARTCHAR divide
ENCODING 184
SWIDTH 1098 0
DWIDTH 14 0
BBX 10 10 2 9
BITMAP
0C00
0C00
0000
0000
FFC0
FFC0
0000
0000
0C00
0C00
ENDCHAR
STARTCHAR notequal
ENCODING 185
SWIDTH 1098 0
DWIDTH 16 0
BBX 12 14 2 7
BITMAP
0030
0070
00E0
01C0
FFF0
FFF0
0700
0E00
FFF0
FFF0
3800
7000
E000
C000
ENDCHAR
STARTCHAR equivalence
ENCODING 186
SWIDTH 1098 0
DWIDTH 16 0
BBX 12 10 2 9
BITMAP
FFF0
FFF0
0000
0000
FFF0
FFF0
0000
0000
FFF0
FFF0
ENDCHAR
STARTCHAR approxequal
ENCODING 187
SWIDTH 1098 0
DWIDTH 16 0
BBX 12 10 2 9
BITMAP
3C10
7E30
C3E0
81C0
0000
0000
3C10
7E30
C3E0
81C0
ENDCHAR
STARTCHAR ellipsis
ENCODING 188
SWIDTH 2000 0
DWIDTH 22 0
BBX 18 4 2 7
BITMAP
C0C0C0
C0C0C0
C0C0C0
C0C0C0
ENDCHAR
STARTCHAR arrowvertex
ENCODING 189
SWIDTH 1206 0
DWIDTH 14 0
BBX 2 32 6 -1
BITMAP
C0
C0
C0
C0
C0
C0
C0
C0
C0
C0
C0
C0
C0
C0
C0
C0
C0
C0
C0
C0
C0
C0
C0
C0
C0
C0
C0
C0
C0
C0
C0
C0
ENDCHAR
STARTCHAR arrowhorizex
ENCODING 190
SWIDTH 2000 0
DWIDTH 26 0
BBX 26 2 0 13
BITMAP
FFFFFFC0
FFFFFFC0
ENDCHAR
STARTCHAR carriagereturn
ENCODING 191
SWIDTH 1316 0
DWIDTH 16 0
BBX 14 16 0 7
BITMAP
000C
000C
000C
000C
000C
000C
000C
000C
000C
000C
300C
300C
FFFC
FFFC
3000
3000
ENDCHAR
STARTCHAR aleph
ENCODING 192
SWIDTH 1646 0
DWIDTH 18 0
BBX 14 18 2 7
BITMAP
C0C0
C0E0
E0F8
F07C
783C
3C38
1E30
3F30
7730
E330
C3B0
E3F0
71F0
30F8
387C
383C
FC1C
FC0C
ENDCHAR
STARTCHAR Ifraktur
ENCODING 193
SWIDTH 1372 0
DWIDTH 18 0
BBX 14 20 2 5
BITMAP
3FFC
7FFC
F00C
E01C
C038
C070
F0E0
F1C0
0380
0380
01C0
00E0
0070
0038
0018
0018
3818
7C30
CFE0
87C0
ENDCHAR
STARTCHAR Rfraktur
ENCODING 194
SWIDTH 1590 0
DWIDTH 20 0
BBX 18 18 2 7
BITMAP
3C1C00
7E3E00
E7E300
C3C300
C38300
C30700
E30E00
F31C00
73F800
33F000
033000
033000
031800
030C00
330C00
7B0600
CF03C0
8703C0
ENDCHAR
STARTCHAR weierstrass
ENCODING 195
SWIDTH 1974 0
DWIDTH 20 0
BBX 16 22 2 1
BITMAP
0300
0600
0C3C
1C7E
38EF
71C7
E383
C703
CE03
CE03
CC83
DCC7
F8CE
70FC
3878
7E00
EF00
C700
C300
E700
7E00
3C00
ENDCHAR
STARTCHAR circlemultiply
ENCODING 196
SWIDTH 1536 0
DWIDTH 18 0
BBX 14 14 2 7
BITMAP
0FC0
3FF0
7038
7878
DCEC
CFCC
C78C
C30C
C78C
CFCC
5CE8
7878
3FF0
0FC0
ENDCHAR
STARTCHAR circleplus
ENCODING 197
SWIDTH 1536 0
DWIDTH 18 0
BBX 14 14 2 7
BITMAP
0FC0
3FF0
7338
6318
C30C
C30C
FFFC
FFFC
C30C
C30C
6318
7338
3FF0
0FC0
ENDCHAR
STARTCHAR emptyset
ENCODING 198
SWIDTH 1646 0
DWIDTH 22 0
BBX 18 18 2 7
BITMAP
03F0C0
07F9C0
1C0F80
380700
300F00
601D80
C038C0
C070C0
C0E0C0
C1C0C0
C380C0
C700C0
6E0180
3C0300
380700
7C0E00
E7F800
C3F000
ENDCHAR
STARTCHAR intersection
ENCODING 199
SWIDTH 1536 0
DWIDTH 18 0
BBX 14 12 2 9
BITMAP
0FC0
1FE0
3870
7038
E01C
C00C
C00C
C00C
C00C
C00C
C00C
C00C
ENDCHAR
STARTCHAR union
ENCODING 200
SWIDTH 1536 0
DWIDTH 18 0
BBX 14 12 2 9
BITMAP
C00C
C00C
C00C
C00C
C00C
C00C
C00C
C00C
6018
3030
1FE0
0FC0
ENDCHAR
STARTCHAR propersuperset
ENCODING 201
SWIDTH 1426 0
DWIDTH 18 0
BBX 14 12 2 9
BITMAP
FFC0
FFE0
0030
0018
000C
000C
000C
000C
0018
0030
FFE0
FFC0
ENDCHAR
STARTCHAR reflexsuperset
ENCODING 202
SWIDTH 1426 0
DWIDTH 18 0
BBX 14 16 2 7
BITMAP
FFC0
FFE0
0030
0018
000C
000C
000C
000C
0018
0030
FFE0
FFC0
0000
0000
FFFC
FFFC
ENDCHAR
STARTCHAR notsubset
ENCODING 203
SWIDTH 1426 0
DWIDTH 18 0
BBX 14 16 2 7
BITMAP
0010
0010
0FFC
1FFC
3040
60C0
C080
C180
C100
C300
6200
3600
1FFC
0FFC
0800
0800
ENDCHAR
STARTCHAR propersubset
ENCODING 204
SWIDTH 1426 0
DWIDTH 18 0
BBX 14 12 2 9
BITMAP
0FFC
1FFC
3000
6000
C000
C000
C000
C000
6000
3000
1FFC
0FFC
ENDCHAR
STARTCHAR reflexsubset
ENCODING 205
SWIDTH 1426 0
DWIDTH 18 0
BBX 14 16 2 7
BITMAP
0FFC
1FFC
3000
6000
C000
C000
C000
C000
6000
3000
1FFC
0FFC
0000
0000
FFFC
FFFC
ENDCHAR
STARTCHAR element
ENCODING 206
SWIDTH 1426 0
DWIDTH 14 0
BBX 10 10 2 9
BITMAP
3FC0
7FC0
C000
C000
FFC0
FFC0
C000
C000
7FC0
3FC0
ENDCHAR
STARTCHAR notelement
ENCODING 207
SWIDTH 1426 0
DWIDTH 14 0
BBX 11 14 2 7
BITMAP
0020
0040
3FC0
7FC0
C100
C200
FFC0
FFC0
C400
C800
7FC0
3FC0
1000
2000
ENDCHAR
STARTCHAR angle
ENCODING 208
SWIDTH 1536 0
DWIDTH 20 0
BBX 18 18 0 7
BITMAP
0000C0
000180
000300
000600
000C00
001800
003000
006000
00C000
018000
030000
060000
0C0000
180000
300000
600000
FFFFC0
FFFFC0
ENDCHAR
STARTCHAR gradient
ENCODING 209
SWIDTH 1426 0
DWIDTH 18 0
BBX 14 17 2 8
BITMAP
FFFC
FFFC
C00C
C00C
6018
6018
3030
3030
1860
1860
0CC0
0CC0
0780
0780
0300
0300
0300
ENDCHAR
STARTCHAR registerserif
ENCODING 210
SWIDTH 1580 0
DWIDTH 20 0
BBX 16 18 2 7
BITMAP
0FF0
1FF8
300C
6006
FFC3
FFE3
CC33
CC33
CFE3
CFC3
CCC3
CCC3
CCF3
DCF3
6006
300C
1FF8
0FF0
ENDCHAR
STARTCHAR copyrightserif
ENCODING 211
SWIDTH 1580 0
DWIDTH 20 0
BBX 16 18 2 7
BITMAP
0FF0
1FF8
300C
6006
C3C3
C7C3
CCC3
CCC3
CC03
CC03
CC33
CC33
C7E3
C3C3
6006
300C
1FF8
0FF0
ENDCHAR
STARTCHAR trademarkserif
ENCODING 212
SWIDTH 1780 0
DWIDTH 22 0
BBX 22 12 0 13
BITMAP
FFCCC0
FFCCC0
CCDCE0
CCDCE0
0C3330
0C3330
0C3330
0C3330
0C3330
0C3330
3F333C
3F303C
ENDCHAR
STARTCHAR product
ENCODING 213
SWIDTH 1646 0
DWIDTH 22 0
BBX 18 22 2 3
BITMAP
FFFFC0
FFFFC0
3C0F00
3C0F00
3C0F00
3C0F00
3C0F00
3C0F00
3C0F00
3C0F00
3C0F00
3C0F00
3C0F00
3C0F00
3C0F00
3C0F00
3C0F00
3C0F00
3C0F00
3C0F00
FC0FC0
FC0FC0
ENDCHAR
STARTCHAR radical
ENCODING 214
SWIDTH 1098 0
DWIDTH 16 0
BBX 14 21 0 4
BITMAP
000C
000C
000C
000C
0018
0018
0018
0030
F030
F030
3060
3860
1860
18C0
0CC0
0CC0
0780
0780
0300
0300
0300
ENDCHAR
STARTCHAR dotmath
ENCODING 215
SWIDTH 500 0
DWIDTH 6 0
BBX 4 2 2 13
BITMAP
F0
F0
ENDCHAR
STARTCHAR logicalnot
ENCODING 216
SWIDTH 1426 0
DWIDTH 18 0
BBX 14 8 2 7
BITMAP
FFFC
FFFC
000C
000C
000C
000C
000C
000C
ENDCHAR
STARTCHAR logicaland
ENCODING 217
SWIDTH 1206 0
DWIDTH 16 0
BBX 12 12 2 9
BITMAP
0600
0600
0F00
0F00
1980
1980
30C0
30C0
6060
6060
C030
C030
ENDCHAR
STARTCHAR logicalor
ENCODING 218
SWIDTH 1206 0
DWIDTH 16 0
BBX 12 12 2 9
BITMAP
C030
C030
6060
6060
30C0
30C0
1980
1980
0F00
0F00
0600
0600
ENDCHAR
STARTCHAR arrowdblboth
ENCODING 219
SWIDTH 2084 0
DWIDTH 26 0
BBX 22 10 2 9
BITMAP
0C00C0
1C00E0
3FFFF0
7FFFF8
F0003C
F0003C
7FFFF8
3FFFF0
1C00E0
0C00C0
ENDCHAR
STARTCHAR arrowdblleft
ENCODING 220
SWIDTH 1974 0
DWIDTH 26 0
BBX 22 10 2 9
BITMAP
0C0000
1C0000
3FFFFC
7FFFFC
F00000
F00000
7FFFFC
3FFFFC
1C0000
0C0000
ENDCHAR
STARTCHAR arrowdblup
ENCODING 221
SWIDTH 1206 0
DWIDTH 14 0
BBX 10 22 2 3
BITMAP
0C00
1E00
3F00
7F80
F3C0
F3C0
3300
3300
3300
3300
3300
3300
3300
3300
3300
3300
3300
3300
3300
3300
3300
3300
ENDCHAR
STARTCHAR arrowdblright
ENCODING 222
SWIDTH 1974 0
DWIDTH 26 0
BBX 22 10 2 9
BITMAP
0000C0
0000E0
FFFFF0
FFFFF8
00003C
00003C
FFFFF8
FFFFF0
0000E0
0000C0
ENDCHAR
STARTCHAR arrowdbldown
ENCODING 223
SWIDTH 1206 0
DWIDTH 14 0
BBX 10 22 2 3
BITMAP
3300
3300
3300
3300
3300
3300
3300
3300
3300
3300
3300
3300
3300
3300
3300
3300
F3C0
F3C0
7F80
3F00
1E00
0C00
ENDCHAR
STARTCHAR lozenge
ENCODING 224
SWIDTH 988 0
DWIDTH 18 0
BBX 12 22 3 3
BITMAP
0600
0600
0F00
0F00
1980
1980
30C0
30C0
6060
6060
C030
C030
6060
6060
30C0
30C0
1980
1980
0F00
0F00
0600
0600
ENDCHAR
STARTCHAR angleleft
ENCODING 225
SWIDTH 960 0
DWIDTH 14 0
BBX 12 22 0 3
BITMAP
0010
0030
0060
00C0
0180
0300
0600
0C00
1800
3000
6000
C000
6000
3000
1800
0C00
0600
0300
0180
00C0
0060
0020
ENDCHAR
STARTCHAR registersans
ENCODING 226
SWIDTH 1580 0
DWIDTH 20 0
BBX 16 18 2 7
BITMAP
0FF0
1FF8
300C
6006
CFC3
CFE3
CC33
CC33
CFE3
CFE3
CC33
CC33
CC33
CC33
6006
300C
1FF8
0FF0
ENDCHAR
STARTCHAR copyrightsans
ENCODING 227
SWIDTH 1580 0
DWIDTH 20 0
BBX 16 18 2 7
BITMAP
0FF0
3FF8
700C
6006
C3C3
C7E3
CE33
CC13
CC03
CC03
CC13
CE33
C7E3
C3C3
6006
700C
3FF8
0FF0
ENDCHAR
STARTCHAR trademarksans
ENCODING 228
SWIDTH 1572 0
DWIDTH 22 0
BBX 20 12 0 13
BITMAP
FFCCC0
FFCCC0
0C0CC0
0C0CC0
0C3330
0C3330
0C3330
0C3330
0C3330
0C3330
0C3330
0C3330
ENDCHAR
STARTCHAR summation
ENCODING 229
SWIDTH 1426 0
DWIDTH 22 0
BBX 18 22 2 3
BITMAP
FFFF00
FFFF00
F00300
780300
3C0000
1E0000
0F0000
078000
03C000
01E000
00F000
01E000
03C000
078000
0F0000
1E0000
3C0000
780000
F003C0
F003C0
FFFFC0
FFFFC0
ENDCHAR
STARTCHAR parenlefttp
ENCODING 230
SWIDTH 768 0
DWIDTH 10 0
BBX 8 32 2 -1
BITMAP
03
06
0C
0C
18
18
30
30
30
60
60
60
C0
C0
C0
C0
C0
C0
C0
C0
C0
C0
C0
C0
C0
C0
C0
C0
C0
C0
C0
C0
ENDCHAR
STARTCHAR parenleftex
ENCODING 231
SWIDTH 768 0
DWIDTH 10 0
BBX 2 32 2 -1
BITMAP
C0
C0
C0
C0
C0
C0
C0
C0
C0
C0
C0
C0
C0
C0
C0
C0
C0
C0
C0
C0
C0
C0
C0
C0
C0
C0
C0
C0
C0
C0
C0
C0
ENDCHAR
STARTCHAR parenleftbt
ENCODING 232
SWIDTH 768 0
DWIDTH 10 0
BBX 8 32 2 -1
BITMAP
C0
C0
C0
C0
C0
C0
C0
C0
C0
C0
C0
C0
C0
C0
C0
C0
C0
C0
C0
C0
60
60
60
30
30
30
18
18
0C
0C
06
03
ENDCHAR
STARTCHAR bracketlefttp
ENCODING 233
SWIDTH 768 0
DWIDTH 10 0
BBX 6 32 2 -1
BITMAP
FC
FC
C0
C0
C0
C0
C0
C0
C0
C0
C0
C0
C0
C0
C0
C0
C0
C0
C0
C0
C0
C0
C0
C0
C0
C0
C0
C0
C0
C0
C0
C0
ENDCHAR
STARTCHAR bracketleftex
ENCODING 234
SWIDTH 768 0
DWIDTH 10 0
BBX 2 32 2 -1
BITMAP
C0
C0
C0
C0
C0
C0
C0
C0
C0
C0
C0
C0
C0
C0
C0
C0
C0
C0
C0
C0
C0
C0
C0
C0
C0
C0
C0
C0
C0
C0
C0
C0
ENDCHAR
STARTCHAR bracketleftbt
ENCODING 235
SWIDTH 768 0
DWIDTH 10 0
BBX 6 30 2 1
BITMAP
C0
C0
C0
C0
C0
C0
C0
C0
C0
C0
C0
C0
C0
C0
C0
C0
C0
C0
C0
C0
C0
C0
C0
C0
C0
C0
C0
C0
FC
FC
ENDCHAR
STARTCHAR bracelefttp
ENCODING 236
SWIDTH 988 0
DWIDTH 12 0
BBX 6 32 4 -1
BITMAP
3C
3C
C0
C0
C0
C0
C0
C0
C0
C0
C0
C0
C0
C0
C0
C0
C0
C0
C0
C0
C0
C0
C0
C0
C0
C0
C0
C0
C0
C0
C0
C0
ENDCHAR
STARTCHAR braceleftmid
ENCODING 237
SWIDTH 988 0
DWIDTH 12 0
BBX 6 32 0 -1
BITMAP
0C
0C
0C
0C
0C
0C
0C
0C
0C
0C
0C
18
30
60
C0
C0
60
30
18
0C
0C
0C
0C
0C
0C
0C
0C
0C
0C
0C
0C
0C
ENDCHAR
STARTCHAR braceleftbt
ENCODING 238
SWIDTH 988 0
DWIDTH 12 0
BBX 6 30 4 1
BITMAP
C0
C0
C0
C0
C0
C0
C0
C0
C0
C0
C0
C0
C0
C0
C0
C0
C0
C0
C0
C0
C0
C0
C0
C0
C0
C0
C0
E0
7C
3C
ENDCHAR
STARTCHAR braceex
ENCODING 239
SWIDTH 988 0
DWIDTH 12 0
BBX 2 32 4 -1
BITMAP
C0
C0
C0
C0
C0
C0
C0
C0
C0
C0
C0
C0
C0
C0
C0
C0
C0
C0
C0
C0
C0
C0
C0
C0
C0
C0
C0
C0
C0
C0
C0
C0
ENDCHAR
STARTCHAR apple
ENCODING 240
SWIDTH 1580 0
DWIDTH 20 0
BBX 18 22 1 7
BITMAP
000F00
001E00
003E00
007E00
007800
007000
1E6380
3F67C0
7FFFC0
7FFFC0
FFFC00
FFF800
FFF800
FFFC00
FFFFC0
FFFFC0
7FFFC0
7FFFC0
3FFFC0
1FFF80
0F9F00
070E00
ENDCHAR
STARTCHAR angleright
ENCODING 241
SWIDTH 960 0
DWIDTH 14 0
BBX 11 22 2 3
BITMAP
8000
C000
6000
3000
1800
0C00
0600
0300
0180
00C0
0060
0060
00C0
0180
0300
0600
0C00
1800
3000
6000
C000
8000
ENDCHAR
STARTCHAR integral
ENCODING 242
SWIDTH 548 0
DWIDTH 16 0
BBX 12 22 2 3
BITMAP
01E0
03F0
07B0
0F30
0F00
0F00
0F00
0F00
0F00
0F00
0F00
0F00
0F00
0F00
0F00
0F00
0F00
0F00
CF00
CF00
FE00
7C00
ENDCHAR
STARTCHAR integraltp
ENCODING 243
SWIDTH 1372 0
DWIDTH 18 0
BBX 10 32 8 -1
BITMAP
0F80
1FC0
39C0
70C0
E000
C000
C000
C000
C000
C000
C000
C000
C000
C000
C000
C000
C000
C000
C000
C000
C000
C000
C000
C000
C000
C000
C000
C000
C000
C000
C000
C000
ENDCHAR
STARTCHAR integralex
ENCODING 244
SWIDTH 1372 0
DWIDTH 18 0
BBX 2 32 2 -1
BITMAP
C0
C0
C0
C0
C0
C0
C0
C0
C0
C0
C0
C0
C0
C0
C0
C0
C0
C0
C0
C0
C0
C0
C0
C0
C0
C0
C0
C0
C0
C0
C0
C0
ENDCHAR
STARTCHAR integralbt
ENCODING 245
SWIDTH 1372 0
DWIDTH 18 0
BBX 10 30 0 1
BITMAP
00C0
00C0
00C0
00C0
00C0
00C0
00C0
00C0
00C0
00C0
00C0
00C0
00C0
00C0
00C0
00C0
00C0
00C0
00C0
00C0
00C0
00C0
00C0
00C0
00C0
00C0
C180
E300
7E00
3C00
ENDCHAR
STARTCHAR parenrighttp
ENCODING 246
SWIDTH 768 0
DWIDTH 10 0
BBX 8 32 0 -1
BITMAP
C0
E0
70
30
18
18
0C
0C
0C
06
06
06
03
03
03
03
03
03
03
03
03
03
03
03
03
03
03
03
03
03
03
03
ENDCHAR
STARTCHAR parenrightex
ENCODING 247
SWIDTH 768 0
DWIDTH 10 0
BBX 2 32 6 -1
BITMAP
C0
C0
C0
C0
C0
C0
C0
C0
C0
C0
C0
C0
C0
C0
C0
C0
C0
C0
C0
C0
C0
C0
C0
C0
C0
C0
C0
C0
C0
C0
C0
C0
ENDCHAR
STARTCHAR parenrightbt
ENCODING 248
SWIDTH 768 0
DWIDTH 10 0
BBX 8 32 0 -1
BITMAP
03
03
03
03
03
03
03
03
03
03
03
03
03
03
03
03
03
03
03
03
06
06
06
0C
0C
0C
18
18
30
70
E0
C0
ENDCHAR
STARTCHAR bracketrighttp
ENCODING 249
SWIDTH 768 0
DWIDTH 10 0
BBX 6 32 2 -1
BITMAP
FC
FC
0C
0C
0C
0C
0C
0C
0C
0C
0C
0C
0C
0C
0C
0C
0C
0C
0C
0C
0C
0C
0C
0C
0C
0C
0C
0C
0C
0C
0C
0C
ENDCHAR
STARTCHAR bracketrightex
ENCODING 250
SWIDTH 768 0
DWIDTH 10 0
BBX 2 32 6 -1
BITMAP
C0
C0
C0
C0
C0
C0
C0
C0
C0
C0
C0
C0
C0
C0
C0
C0
C0
C0
C0
C0
C0
C0
C0
C0
C0
C0
C0
C0
C0
C0
C0
C0
ENDCHAR
STARTCHAR bracketrightbt
ENCODING 251
SWIDTH 768 0
DWIDTH 10 0
BBX 6 30 2 1
BITMAP
0C
0C
0C
0C
0C
0C
0C
0C
0C
0C
0C
0C
0C
0C
0C
0C
0C
0C
0C
0C
0C
0C
0C
0C
0C
0C
0C
0C
FC
FC
ENDCHAR
STARTCHAR bracerighttp
ENCODING 252
SWIDTH 988 0
DWIDTH 12 0
BBX 6 32 0 -1
BITMAP
F0
F8
1C
0C
0C
0C
0C
0C
0C
0C
0C
0C
0C
0C
0C
0C
0C
0C
0C
0C
0C
0C
0C
0C
0C
0C
0C
0C
0C
0C
0C
0C
ENDCHAR
STARTCHAR bracerightmid
ENCODING 253
SWIDTH 988 0
DWIDTH 12 0
BBX 6 32 4 -1
BITMAP
C0
C0
C0
C0
C0
C0
C0
C0
C0
C0
C0
60
30
18
0C
0C
18
30
60
C0
C0
C0
C0
C0
C0
C0
C0
C0
C0
C0
C0
C0
ENDCHAR
STARTCHAR bracerightbt
ENCODING 254
SWIDTH 988 0
DWIDTH 12 0
BBX 6 30 0 1
BITMAP
0C
0C
0C
0C
0C
0C
0C
0C
0C
0C
0C
0C
0C
0C
0C
0C
0C
0C
0C
0C
0C
0C
0C
0C
0C
0C
0C
1C
F8
F0
ENDCHAR
ENDFONT
